<svg width="24" height="24" viewBox="0 0 24 24" fill="none" stroke="black" stroke-width="1.5" xmlns="http://www.w3.org/2000/svg">
<path fill-rule="evenodd" clip-rule="evenodd" d="M9.55851 21.4562C5.88651 21.4562 2.74951 20.9012 2.74951 18.6772C2.74951 16.4532 5.86651 14.4492 9.55851 14.4492C13.2305 14.4492 16.3665 16.4342 16.3665 18.6572C16.3665 20.8802 13.2505 21.4562 9.55851 21.4562Z" stroke-linecap="round" stroke-linejoin="round"/>
<path fill-rule="evenodd" clip-rule="evenodd" d="M9.55849 11.2775C11.9685 11.2775 13.9225 9.3235 13.9225 6.9135C13.9225 4.5035 11.9685 2.5495 9.55849 2.5495C7.14849 2.5495 5.19449 4.5035 5.19449 6.9135C5.18549 9.3155 7.12649 11.2695 9.52749 11.2775H9.55849Z" stroke-linecap="round" stroke-linejoin="round"/>
<path d="M16.8013 10.0788C18.2043 9.70379 19.2383 8.42479 19.2383 6.90279C19.2393 5.31479 18.1123 3.98879 16.6143 3.68179" stroke-linecap="round" stroke-linejoin="round"/>
<path d="M17.4608 13.6535C19.4488 13.6535 21.1468 15.0015 21.1468 16.2045C21.1468 16.9135 20.5618 17.6415 19.6718 17.8505" stroke-linecap="round" stroke-linejoin="round"/>
</svg>
