<svg width="24" height="24" viewBox="0 0 24 24" fill="none" xmlns="http://www.w3.org/2000/svg">
<g id="Iconly/Curved/Add User">
<g id="Add User">
<path id="Stroke 1" fill-rule="evenodd" clip-rule="evenodd" d="M9.92234 21.8083C6.10834 21.8083 2.85034 21.2313 2.85034 18.9213C2.85034 16.6113 6.08734 14.5103 9.92234 14.5103C13.7363 14.5103 16.9943 16.5913 16.9943 18.9003C16.9943 21.2093 13.7573 21.8083 9.92234 21.8083Z" stroke="white" stroke-width="1.5" stroke-linecap="round" stroke-linejoin="round"/>
<path id="Stroke 3" fill-rule="evenodd" clip-rule="evenodd" d="M9.92231 11.216C12.4253 11.216 14.4553 9.18602 14.4553 6.68302C14.4553 4.17902 12.4253 2.15002 9.92231 2.15002C7.41931 2.15002 5.38931 4.17902 5.38931 6.68302C5.38031 9.17702 7.39631 11.207 9.89031 11.216H9.92231Z" stroke="white" stroke-width="1.5" stroke-linecap="round" stroke-linejoin="round"/>
<path id="Stroke 5" d="M19.1313 8.12915V12.1392" stroke="white" stroke-width="1.5" stroke-linecap="round" stroke-linejoin="round"/>
<path id="Stroke 7" d="M21.1776 10.1339H17.0876" stroke="white" stroke-width="1.5" stroke-linecap="round" stroke-linejoin="round"/>
</g>
</g>
</svg>
