<svg width="25" height="24" viewBox="0 0 25 24" fill="none" xmlns="http://www.w3.org/2000/svg">
<path fill-rule="evenodd" clip-rule="evenodd" d="M15.9481 12.4981C15.9481 10.7613 14.5361 9.35284 12.7948 9.35284C11.0536 9.35284 9.64157 10.7613 9.64157 12.4981C9.64157 14.2349 11.0536 15.6434 12.7948 15.6434C14.5361 15.6434 15.9481 14.2349 15.9481 12.4981Z" stroke="black" stroke-width="1.5" stroke-linecap="round" stroke-linejoin="round"/>
<path fill-rule="evenodd" clip-rule="evenodd" d="M12.7945 20.2001C20.8603 20.2001 21.8206 17.7896 21.8206 12.5664C21.8206 8.90536 21.3352 6.94642 18.2779 6.10431C17.9972 6.01589 17.6859 5.84747 17.4337 5.57063C17.0263 5.12536 16.7287 3.758 15.7452 3.34431C14.7616 2.93168 10.8116 2.95063 9.84388 3.34431C8.87722 3.73905 8.56274 5.12536 8.15539 5.57063C7.90317 5.84747 7.59291 6.01589 7.31114 6.10431C4.25391 6.94642 3.76846 8.90536 3.76846 12.5664C3.76846 17.7896 4.72879 20.2001 12.7945 20.2001Z" stroke="black" stroke-width="1.5" stroke-linecap="round" stroke-linejoin="round"/>
<path d="M17.719 9H17.728" stroke="black" stroke-width="1.5" stroke-linecap="round" stroke-linejoin="round"/>
</svg>
