<svg width="24" height="24" viewBox="0 0 24 24" fill="none" xmlns="http://www.w3.org/2000/svg">
<path fill-rule="evenodd" clip-rule="evenodd" d="M15.0416 12.0001C15.0416 10.2633 13.6296 8.85484 11.8883 8.85484C10.1471 8.85484 8.73507 10.2633 8.73507 12.0001C8.73507 13.7369 10.1471 15.1454 11.8883 15.1454C13.6296 15.1454 15.0416 13.7369 15.0416 12.0001Z" stroke-width="1.5" stroke-linecap="round" stroke-linejoin="round"/>
<path fill-rule="evenodd" clip-rule="evenodd" d="M11.888 19.7021C19.9538 19.7021 20.9141 17.2916 20.9141 12.0684C20.9141 8.40736 20.4287 6.44842 17.3714 5.60631C17.0907 5.51789 16.7794 5.34947 16.5272 5.07263C16.1198 4.62736 15.8222 3.26 14.8387 2.84631C13.8551 2.43368 9.90507 2.45263 8.93738 2.84631C7.97072 3.24105 7.65624 4.62736 7.24889 5.07263C6.99667 5.34947 6.68641 5.51789 6.40464 5.60631C3.34741 6.44842 2.86196 8.40736 2.86196 12.0684C2.86196 17.2916 3.82229 19.7021 11.888 19.7021Z" stroke-width="1.5" stroke-linecap="round" stroke-linejoin="round"/>
<path d="M16.8125 8.50195H16.8215" stroke-width="1.5" stroke-linecap="round" stroke-linejoin="round"/>
</svg>
