<svg width="24" height="24" viewBox="0 0 24 24" fill="none" xmlns="http://www.w3.org/2000/svg">
<path d="M8.6805 20.2714V17.2047C8.68049 16.4246 9.31802 15.7908 10.1079 15.7856H13.0013C13.795 15.7856 14.4384 16.4209 14.4384 17.2047V17.2047V20.2809C14.4382 20.9432 14.9735 21.4845 15.644 21.5H17.5729C19.4959 21.5 21.0547 19.9607 21.0547 18.0618V18.0618V9.33784C21.0444 8.59083 20.6892 7.88935 20.0902 7.43303L13.4932 2.1853C12.3375 1.27157 10.6946 1.27157 9.53889 2.1853L2.97082 7.44256C2.36953 7.89702 2.01375 8.59967 2.00635 9.34736V18.0618C2.00635 19.9607 3.56518 21.5 5.4881 21.5H7.41704C8.10418 21.5 8.66121 20.9499 8.66121 20.2714V20.2714" stroke-width="1.5" stroke-linecap="round" stroke-linejoin="round"/>
</svg>
