<svg width="30" height="30" viewBox="0 0 30 30" fill="none" xmlns="http://www.w3.org/2000/svg">
<path fill-rule="evenodd" clip-rule="evenodd" d="M15 12C16.6571 12 18 13.3429 18 15C18 16.6571 16.6571 18 15 18C13.3429 18 12 16.6571 12 15C12 13.3429 13.3429 12 15 12Z" stroke-width="1.5" stroke-linecap="round" stroke-linejoin="round"/>
<path fill-rule="evenodd" clip-rule="evenodd" d="M24.8016 9.3003V9.3003C23.9813 7.8696 22.1655 7.38005 20.7462 8.20623C19.5117 8.92336 17.9689 8.02606 17.9689 6.59062C17.9689 4.93944 16.639 3.60001 14.9997 3.60001V3.60001C13.3604 3.60001 12.0305 4.93944 12.0305 6.59062C12.0305 8.02606 10.4877 8.92336 9.25438 8.20623C7.83394 7.38005 6.01808 7.8696 5.19782 9.3003C4.37874 10.731 4.86477 12.56 6.28522 13.385C7.51854 14.1033 7.51854 15.8967 6.28522 16.615C4.86477 17.4412 4.37874 19.2702 5.19782 20.6997C6.01808 22.1304 7.83394 22.62 9.2532 21.795H9.25438C10.4877 21.0766 12.0305 21.9739 12.0305 23.4094V23.4094C12.0305 25.0606 13.3604 26.4 14.9997 26.4V26.4C16.639 26.4 17.9689 25.0606 17.9689 23.4094V23.4094C17.9689 21.9739 19.5117 21.0766 20.7462 21.795C22.1655 22.62 23.9813 22.1304 24.8016 20.6997C25.6218 19.2702 25.1346 17.4412 23.7154 16.615H23.7142C22.4809 15.8967 22.4809 14.1033 23.7154 13.385C25.1346 12.56 25.6218 10.731 24.8016 9.3003Z" stroke-width="1.5" stroke-linecap="round" stroke-linejoin="round"/>
</svg>
