<?xml version="1.0" encoding="UTF-8"?>
<svg id="Layer_1" data-name="Layer 1" xmlns="http://www.w3.org/2000/svg" viewBox="0 0 355.28 321.98">
  <defs>
    <style>
      .cls-1 {
        fill: none;
      }
    </style>
  </defs>
  <polygon class="cls-1" points="88.55 213.09 88.55 213.09 89.02 214.36 88.55 213.09"/>
  <polygon class="cls-1" points="134.1 188.18 135.09 184.42 134.06 188.06 134.1 188.18"/>
  <polygon points="25.44 43.24 0 295.97 51.71 301.17 66.57 153.57 25.83 43.28 25.44 43.24"/>
  <polygon points="99.78 214.02 119.16 206.85 99.78 214.02 99.78 214.02"/>
  <polygon points="88.55 213.09 88.8 215.27 89.33 215.21 89.02 214.36 88.55 213.09"/>
  <polygon points="179.66 13.7 128.63 19.54 128.85 21.49 129.27 20.01 177.99 33.89 143.93 153.39 153.38 236.05 202.54 213.88 179.66 13.7"/>
  <polygon points="327.45 213.58 275.87 219.48 271.67 182.71 202.54 213.88 205.98 243.97 154.96 249.81 153.38 236.05 107.37 256.81 88.68 321.98 327.73 214.16 327.44 213.51 327.45 213.58"/>
  <polygon points="205.98 243.97 202.54 213.88 153.38 236.05 154.96 249.81 205.98 243.97"/>
  <polygon points="327.44 213.51 309.22 54.12 257.29 56.98 271.67 182.71 306.47 167.01 327.44 213.51"/>
  <polygon points="327.45 213.58 327.44 213.51 306.47 167.01 271.67 182.71 275.87 219.48 327.45 213.58"/>
  <polygon points="307.42 38.39 309.22 54.12 355.28 51.58 352.44 0 205.35 8.11 208.2 59.69 257.29 56.98 255.84 44.28 307.42 38.39"/>
  <polygon points="307.42 38.39 255.84 44.28 257.29 56.98 309.22 54.12 307.42 38.39"/>
  <polygon points="80.48 191.25 82.38 196.37 80.86 192.28 80.48 191.25"/>
  <polygon points="104.33 107.57 134.06 188.06 135.09 184.42 135.09 184.42 135.09 184.42 143.93 153.39 128.85 21.49 104.33 107.57"/>
  <polygon points="129.27 20.01 128.85 21.49 143.93 153.39 177.99 33.89 129.27 20.01"/>
  <polygon points="90.2 217.55 99.78 214.02 89.33 215.21 90.2 217.55"/>
  <polygon points="86.78 197.63 82.38 196.37 88.55 213.09 86.78 197.63"/>
  <polygon points="82.38 196.37 88.55 213.09 88.55 213.09 82.38 196.37"/>
  <polygon points="83.22 166.42 87.7 165.91 104.33 107.57 73.93 25.27 25.75 43.07 25.83 43.28 77.15 48.45 66.57 153.57 80.01 189.96 80.48 191.25 84.46 177.29 83.22 166.42"/>
  <polygon points="129.82 202.92 130.25 202.76 134.1 188.18 134.06 188.06 129.82 202.92"/>
  <polygon points="25.83 43.28 66.57 153.57 77.15 48.45 25.83 43.28"/>
  <polygon points="88.55 213.09 89.02 214.36 89.33 215.21 99.78 214.02 119.16 206.85 86.78 197.63 88.55 213.09"/>
  <polygon points="84.46 177.29 87.7 165.91 83.22 166.42 84.46 177.29"/>
  <polygon points="84.46 177.29 80.48 191.25 80.86 192.28 82.38 196.37 86.78 197.63 84.46 177.29"/>
  <polygon points="104.33 107.57 87.7 165.91 122 161.99 126.81 204.03 129.82 202.92 134.06 188.06 104.33 107.57"/>
  <polygon points="87.7 165.91 84.46 177.29 86.78 197.63 119.16 206.85 126.81 204.03 122 161.99 87.7 165.91"/>
</svg>