<?xml version="1.0" encoding="UTF-8" standalone="no"?>
<!DOCTYPE svg PUBLIC "-//W3C//DTD SVG 1.1//EN" "http://www.w3.org/Graphics/SVG/1.1/DTD/svg11.dtd">
<svg width="100%" height="100%" viewBox="0 0 1000 1000" version="1.1" xmlns="http://www.w3.org/2000/svg" xmlns:xlink="http://www.w3.org/1999/xlink" xml:space="preserve" xmlns:serif="http://www.serif.com/" style="fill-rule:evenodd;clip-rule:evenodd;stroke-linejoin:round;stroke-miterlimit:2;">
    <rect x="0" y="0" width="1" height="1" style="fill:white;"/>
    <g id="_698600" serif:id="698600" transform="matrix(2.5588,0,0,2.5588,500,500)">
        <g>
            <g id="Layer_1" transform="matrix(1,0,0,1,-88.855,52.735)">
                <path d="M-0.235,-0.635L0.235,0.635L-0.235,-0.635Z" style="fill:none;fill-rule:nonzero;"/>
            </g>
            <g id="Layer_11" serif:id="Layer_1" transform="matrix(1,0,0,1,-43.065,25.31)">
                <path d="M-0.475,1.88L0.515,-1.88L-0.515,1.76L-0.475,1.88Z" style="fill:none;fill-rule:nonzero;"/>
            </g>
            <g id="Layer_12" serif:id="Layer_1" transform="matrix(1,0,0,1,-144.355,11.215)">
                <path d="M-7.845,-128.965L-33.285,123.765L18.425,128.965L33.285,-18.635L-7.455,-128.925L-7.845,-128.965Z" style="fill:white;fill-rule:nonzero;"/>
            </g>
            <g id="Layer_13" serif:id="Layer_1" transform="matrix(1,0,0,1,-68.17,49.445)">
                <path d="M-9.69,3.585L9.69,-3.585L-9.69,3.585Z" style="fill:white;fill-rule:nonzero;"/>
            </g>
            <g id="Layer_14" serif:id="Layer_1" transform="matrix(1,0,0,1,-88.7,53.19)">
                <path d="M-0.39,-1.09L-0.14,1.09L0.39,1.03L0.08,0.18L-0.39,-1.09Z" style="fill:white;fill-rule:nonzero;"/>
            </g>
            <g id="Layer_15" serif:id="Layer_1" transform="matrix(1,0,0,1,-12.055,-36.115)">
                <path d="M14.075,-111.175L-36.955,-105.335L-36.735,-103.385L-36.315,-104.865L12.405,-90.985L-21.655,28.515L-12.205,111.175L36.955,89.005L14.075,-111.175Z" style="fill:white;fill-rule:nonzero;"/>
            </g>
            <g id="Layer_16" serif:id="Layer_1" transform="matrix(1,0,0,1,30.565,91.355)">
                <path d="M119.245,-38.765L67.665,-32.865L63.465,-69.635L-5.665,-38.465L-2.225,-8.375L-53.245,-2.535L-54.825,-16.295L-100.835,4.465L-119.525,69.635L119.525,-38.185L119.235,-38.835L119.245,-38.765Z" style="fill:white;fill-rule:nonzero;"/>
            </g>
            <g id="Layer_17" serif:id="Layer_1" transform="matrix(1,0,0,1,2.04,70.855)">
                <path d="M26.3,12.125L22.86,-17.965L-26.3,4.205L-24.72,17.965L26.3,12.125Z" style="fill:white;fill-rule:nonzero;"/>
            </g>
            <g id="Layer_18" serif:id="Layer_1" transform="matrix(1,0,0,1,114.725,-27.175)">
                <path d="M35.075,79.695L16.855,-79.695L-35.075,-76.835L-20.695,48.895L14.105,33.195L35.075,79.695Z" style="fill:white;fill-rule:nonzero;"/>
            </g>
            <g id="Layer_19" serif:id="Layer_1" transform="matrix(1,0,0,1,121.92,32.255)">
                <path d="M27.89,20.335L27.88,20.265L6.91,-26.235L-27.89,-10.535L-23.69,26.235L27.89,20.335Z" style="fill:white;fill-rule:nonzero;"/>
            </g>
            <g id="Layer_110" serif:id="Layer_1" transform="matrix(1,0,0,1,102.675,-131.145)">
                <path d="M27.105,8.545L28.905,24.275L74.965,21.735L72.125,-29.845L-74.965,-21.735L-72.115,29.845L-23.025,27.135L-24.475,14.435L27.105,8.545Z" style="fill:white;fill-rule:nonzero;"/>
            </g>
            <g id="Layer_111" serif:id="Layer_1" transform="matrix(1,0,0,1,104.89,-113.305)">
                <path d="M24.89,-9.295L-26.69,-3.405L-25.24,9.295L26.69,6.435L24.89,-9.295Z" style="fill:white;fill-rule:nonzero;"/>
            </g>
            <g id="Layer_112" serif:id="Layer_1" transform="matrix(1,0,0,1,-96.21,32.82)">
                <path d="M-0.95,-2.56L0.95,2.56L-0.57,-1.53L-0.95,-2.56Z" style="fill:white;fill-rule:nonzero;"/>
            </g>
            <g id="Layer_113" serif:id="Layer_1" transform="matrix(1,0,0,1,-53.51,-56.215)">
                <path d="M-19.8,2.795L9.93,83.285L10.96,79.645L19.8,48.615L4.72,-83.285L-19.8,2.795Z" style="fill:white;fill-rule:nonzero;"/>
            </g>
            <g id="Layer_114" serif:id="Layer_1" transform="matrix(1,0,0,1,-24.22,-74.29)">
                <path d="M-24.15,-66.69L-24.57,-65.21L-9.49,66.69L24.57,-52.81L-24.15,-66.69Z" style="fill:white;fill-rule:nonzero;"/>
            </g>
            <g id="Layer_115" serif:id="Layer_1" transform="matrix(1,0,0,1,-83.085,54.795)">
                <path d="M-4.355,1.765L5.225,-1.765L-5.225,-0.575L-4.355,1.765Z" style="fill:white;fill-rule:nonzero;"/>
            </g>
            <g id="Layer_116" serif:id="Layer_1" transform="matrix(1,0,0,1,-92.175,43.74)">
                <path d="M1.315,-7.1L-3.085,-8.36L3.085,8.36L1.315,-7.1Z" style="fill:white;fill-rule:nonzero;"/>
            </g>
            <g id="Layer_117" serif:id="Layer_1" transform="matrix(1,0,0,1,-92.175,43.74)">
                <path d="M-3.085,-8.36L3.085,8.36L-3.085,-8.36Z" style="fill:white;fill-rule:nonzero;"/>
            </g>
            <g id="Layer_118" serif:id="Layer_1" transform="matrix(1,0,0,1,-112.6,-52.73)">
                <path d="M18.18,58.16L22.66,57.65L39.29,-0.69L8.89,-82.99L-39.29,-65.19L-39.21,-64.98L12.11,-59.81L1.53,45.31L14.97,81.7L15.44,82.99L19.42,69.03L18.18,58.16Z" style="fill:white;fill-rule:nonzero;"/>
            </g>
            <g id="Layer_119" serif:id="Layer_1" transform="matrix(1,0,0,1,-45.68,34.5)">
                <path d="M-2.14,7.43L-1.71,7.27L2.14,-7.31L2.1,-7.43L-2.14,7.43Z" style="fill:white;fill-rule:nonzero;"/>
            </g>
            <g id="Layer_120" serif:id="Layer_1" transform="matrix(1,0,0,1,-126.15,-62.565)">
                <path d="M-25.66,-55.145L15.08,55.145L25.66,-49.975L-25.66,-55.145Z" style="fill:white;fill-rule:nonzero;"/>
            </g>
            <g id="Layer_121" serif:id="Layer_1" transform="matrix(1,0,0,1,-74.67,45.43)">
                <path d="M-14.42,6.67L-13.95,7.94L-13.64,8.79L-3.19,7.6L16.19,0.43L-16.19,-8.79L-14.42,6.67Z" style="fill:white;fill-rule:nonzero;"/>
            </g>
            <g id="Layer_122" serif:id="Layer_1" transform="matrix(1,0,0,1,-92.18,10.61)">
                <path d="M-1,5.69L2.24,-5.69L-2.24,-5.18L-1,5.69Z" style="fill:white;fill-rule:nonzero;"/>
            </g>
            <g id="Layer_123" serif:id="Layer_1" transform="matrix(1,0,0,1,-94.01,26.47)">
                <path d="M0.83,-10.17L-3.15,3.79L-2.77,4.82L-1.25,8.91L3.15,10.17L0.83,-10.17Z" style="fill:white;fill-rule:nonzero;"/>
            </g>
            <g id="Layer_124" serif:id="Layer_1" transform="matrix(1,0,0,1,-66.76,-5.19)">
                <path d="M-6.55,-48.23L-23.18,10.11L11.12,6.19L15.93,48.23L18.94,47.12L23.18,32.26L-6.55,-48.23Z" style="fill:white;fill-rule:nonzero;"/>
            </g>
            <g id="Layer_125" serif:id="Layer_1" transform="matrix(1,0,0,1,-72.005,23.43)">
                <path d="M-17.935,-18.51L-21.175,-7.13L-18.855,13.21L13.525,22.43L21.175,19.61L16.365,-22.43L-17.935,-18.51Z" style="fill:white;fill-rule:nonzero;"/>
            </g>
        </g>
    </g>
</svg>
