<svg width="24" height="24" viewBox="0 0 24 24" fill="none" xmlns="http://www.w3.org/2000/svg">
<g id="Iconly/Curved/Password">
<g id="Password">
<path id="Stroke 1" fill-rule="evenodd" clip-rule="evenodd" d="M10.6887 12.0001C10.6887 13.0231 9.85974 13.8521 8.83674 13.8521C7.81374 13.8521 6.98474 13.0231 6.98474 12.0001C6.98474 10.9771 7.81374 10.1481 8.83674 10.1481H8.83974C9.86174 10.1491 10.6887 10.9781 10.6887 12.0001Z" stroke="black" stroke-width="1.5" stroke-linecap="round" stroke-linejoin="round"/>
<path id="Stroke 3" d="M10.6918 12.0001H17.0098V13.8521" stroke="black" stroke-width="1.5" stroke-linecap="round" stroke-linejoin="round"/>
<path id="Stroke 5" d="M14.182 13.8521V12.0001" stroke="black" stroke-width="1.5" stroke-linecap="round" stroke-linejoin="round"/>
<path id="Stroke 7" fill-rule="evenodd" clip-rule="evenodd" d="M2.74988 12.0001C2.74988 5.0631 5.06288 2.7501 11.9999 2.7501C18.9369 2.7501 21.2499 5.0631 21.2499 12.0001C21.2499 18.9371 18.9369 21.2501 11.9999 21.2501C5.06288 21.2501 2.74988 18.9371 2.74988 12.0001Z" stroke="black" stroke-width="1.5" stroke-linecap="round" stroke-linejoin="round"/>
</g>
</g>
</svg>
