<svg width="30" height="30" viewBox="0 0 30 30" fill="none" xmlns="http://www.w3.org/2000/svg">
<path d="M11.25 17.5V15C11.25 14.2625 11.7675 13.75 12.5 13.75H18.75M18.75 13.75L16.25 11.25M18.75 13.75L16.25 16.25M16.8075 3.24998L26.7513 13.1925C27.2307 13.6719 27.5 14.322 27.5 15C27.5 15.6779 27.2307 16.3281 26.7513 16.8075L16.8075 26.7512C16.3282 27.2306 15.678 27.4999 15 27.4999C14.3221 27.4999 13.6719 27.2306 13.1925 26.7512L3.24879 16.8075C2.76942 16.3281 2.50012 15.6779 2.50012 15C2.50012 14.322 2.76942 13.6719 3.24879 13.1925L13.1925 3.24873C13.6719 2.76936 14.3221 2.50006 15 2.50006C15.678 2.50006 16.3282 2.77061 16.8075 3.24998Z" stroke="white" stroke-width="1.5" stroke-linecap="round" stroke-linejoin="round"/>
</svg>
