<svg width="24" height="24" viewBox="0 0 24 24" fill="none" xmlns="http://www.w3.org/2000/svg">
<path d="M9 14V12C9 11.4 9.414 11 10 11H15M15 11L13 9M15 11L13 13M13.446 2.6L21.401 10.555C21.7847 10.9375 22 11.4559 22 12C22 12.5441 21.7847 13.0625 21.401 13.445L13.446 21.401C13.0635 21.7847 12.5451 22 12.001 22C11.4569 22 10.9385 21.7847 10.556 21.401L2.599 13.445C2.21534 13.0625 2 12.5441 2 12C2 11.4559 2.21534 10.9375 2.599 10.555L10.556 2.6C10.9385 2.21634 11.4569 2.001 12.001 2.001C12.5451 2.001 13.0635 2.21634 13.446 2.6Z" stroke-width="1.5" stroke-linecap="round" stroke-linejoin="round"/>
</svg>
